<svg height="512pt" viewBox="0 -95 512.003 512" width="512pt" xmlns="http://www.w3.org/2000/svg"><path d="m236.292969 171.347656v-24.511718c0-27.773438-10.695313-54.003907-30.113281-73.859376-9.410157-9.621093-20.363282-17.222656-32.308594-22.578124.070312-1.046876.113281-2.09375.113281-3.144532 0-26.054687-21.195313-47.253906-47.253906-47.253906-26.054688 0-47.253907 21.199219-47.253907 47.253906 0 1.050782.046876 2.097656.117188 3.144532-37.496094 16.75-62.421875 54.179687-62.421875 96.4375v24.511718c-9.980469 3.445313-17.171875 12.925782-17.171875 24.0625v9.222656c0 16.746094 13.621094 30.367188 30.367188 30.367188h.8125c3.234374 21.964844 15.902343 40.886719 33.734374 52.539062v2.59375c0 17.332032 14.101563 31.429688 31.433594 31.429688h60.769532c17.332031 0 31.433593-14.097656 31.433593-31.429688v-2.59375c17.832031-11.652343 30.5-30.578124 33.734375-52.539062h.8125c16.742188 0 30.367188-13.621094 30.367188-30.367188v-9.222656c-.003906-11.136718-7.195313-20.617187-17.171875-24.0625zm-135.769531-112.460937c4-1.011719 6.421874-5.070313 5.414062-9.066407-1.011719-4-5.074219-6.421874-9.070312-5.414062-.796876.203125-1.582032.433594-2.371094.652344 1.132812-16.796875 15.152344-30.121094 32.234375-30.121094 17.074219 0 31.085937 13.304688 32.238281 30.089844-8.3125-2.300782-16.957031-3.59375-25.78125-3.800782-.058594 0-.117188-.003906-.175781-.003906-4.042969 0-7.367188 3.230469-7.464844 7.292969-.097656 4.121094 3.167969 7.542969 7.289063 7.640625 48.8125 1.152344 88.523437 41.832031 88.523437 90.683594v2.019531c-7.429687-34.175781-37.898437-59.855469-74.269531-59.855469h-40.71875c-36.367188 0-66.839844 25.679688-74.265625 59.855469v-2.019531c0-41.613282 28.132812-77.78125 68.417969-87.953125zm-85.589844 145.746093v-9.222656c0-5.800781 4.71875-10.519531 10.515625-10.519531h4.910156v35.175781c-8.507813-.003906-15.425781-6.925781-15.425781-15.433594zm142.183594 101.996094h-60.773438c-7.238281 0-13.390625-4.695312-15.605469-11.199218 8.011719 2.878906 16.640625 4.460937 25.632813 4.460937h40.71875c8.992187 0 17.621094-1.582031 25.636718-4.460937-2.214843 6.503906-8.367187 11.199218-15.609374 11.199218zm81.410156-101.996094c0 8.507813-6.921875 15.433594-15.429688 15.433594h-.097656c-.574219-3.554687-3.644531-6.273437-7.363281-6.273437-4.125 0-7.464844 3.34375-7.464844 7.464843v2.621094c0 33.675782-27.402344 61.078125-61.082031 61.078125h-40.71875c-33.679688 0-61.078125-27.402343-61.078125-61.078125v-58.863281c0-33.679687 27.398437-61.078125 61.078125-61.078125h40.71875c33.679687 0 61.082031 27.398438 61.082031 61.078125v26.589844c0 4.125 3.339844 7.46875 7.464844 7.46875s7.46875-3.34375 7.46875-7.46875v-6.714844h4.90625c5.800781 0 10.515625 4.71875 10.515625 10.519531zm0 0"/><path d="m494.832031 171.347656v-30.792968c0-47.878907-38.953125-86.832032-86.832031-86.832032h-45.460938c-47.878906 0-86.832031 38.953125-86.832031 86.832032v30.792968c-9.976562 3.445313-17.167969 12.925782-17.167969 24.058594v9.226562c0 16.742188 13.621094 30.367188 30.367188 30.367188h.8125c3.234375 21.960938 15.902344 40.886719 33.734375 52.539062v2.59375c0 17.332032 14.101563 31.429688 31.433594 31.429688h60.769531c17.332031 0 31.433594-14.097656 31.433594-31.429688v-2.59375c17.832031-11.652343 30.496094-30.578124 33.730468-52.539062h.816407c16.742187 0 30.367187-13.625 30.367187-30.367188v-9.226562c-.003906-11.132812-7.195312-20.613281-17.171875-24.058594zm-132.292969-102.691406h45.457032c39.648437 0 71.898437 32.253906 71.898437 71.898438v8.308593c-7.425781-34.179687-37.894531-59.863281-74.265625-59.863281h-40.722656c-36.367188 0-66.839844 25.683594-74.265625 59.863281v-8.308593c0-39.644532 32.253906-71.898438 71.898437-71.898438zm-89.066406 135.976562v-9.222656c0-5.800781 4.714844-10.519531 10.515625-10.519531h4.910157v35.175781c-8.507813-.003906-15.425782-6.925781-15.425782-15.433594zm142.183594 101.996094h-60.773438c-7.242187 0-13.394531-4.695312-15.609374-11.199218 8.015624 2.878906 16.640624 4.460937 25.636718 4.460937h40.71875c8.992188 0 17.621094-1.582031 25.632813-4.460937-2.210938 6.503906-8.363281 11.199218-15.605469 11.199218zm81.410156-101.996094c0 8.507813-6.921875 15.433594-15.433594 15.433594h-.097656c-.570312-3.554687-3.644531-6.273437-7.359375-6.273437-4.125 0-7.46875 3.34375-7.46875 7.464843v2.621094c0 33.675782-27.398437 61.078125-61.078125 61.078125h-40.71875c-33.679687 0-61.078125-27.402343-61.078125-61.078125v-58.863281c0-33.679687 27.398438-61.078125 61.078125-61.078125h40.71875c33.679688 0 61.078125 27.398438 61.078125 61.078125v26.589844c0 4.125 3.34375 7.46875 7.46875 7.46875 4.121094 0 7.464844-3.34375 7.464844-7.46875v-6.714844h4.910156c5.796875 0 10.515625 4.71875 10.515625 10.519531zm0 0"/><path d="m145.46875 236.90625c-3.929688-1.261719-8.132812.898438-9.394531 4.824219-.851563 2.648437-4.335938 5.328125-9.34375 5.328125-5.007813 0-8.492188-2.679688-9.34375-5.328125-1.261719-3.925781-5.472657-6.082031-9.394531-4.824219-3.925782 1.261719-6.085938 5.46875-4.820313 9.394531 2.96875 9.242188 12.65625 15.695313 23.558594 15.695313 10.902343 0 20.589843-6.453125 23.558593-15.695313 1.265626-3.925781-.894531-8.132812-4.820312-9.394531zm0 0"/><path d="m169.03125 158.425781c-17.382812 0-31.9375 12.328125-35.386719 28.699219h-13.824219c-3.453124-16.371094-18.003906-28.699219-35.386718-28.699219-19.941406 0-36.167969 16.226563-36.167969 36.167969s16.226563 36.164062 36.167969 36.164062c17.382812 0 31.933594-12.328124 35.386718-28.699218h13.824219c3.449219 16.371094 18.003907 28.699218 35.386719 28.699218 19.941406 0 36.164062-16.222656 36.164062-36.164062s-16.222656-36.167969-36.164062-36.167969zm-84.597656 57.398438c-11.707032 0-21.234375-9.523438-21.234375-21.230469s9.527343-21.230469 21.234375-21.230469c11.707031 0 21.230468 9.523438 21.230468 21.230469s-9.523437 21.230469-21.230468 21.230469zm84.597656 0c-11.707031 0-21.230469-9.523438-21.230469-21.230469s9.523438-21.230469 21.230469-21.230469 21.230469 9.523438 21.230469 21.230469-9.523438 21.230469-21.230469 21.230469zm0 0"/><path d="m178.820312 194.59375c0 5.40625-4.382812 9.789062-9.789062 9.789062-5.410156 0-9.792969-4.382812-9.792969-9.789062 0-5.410156 4.382813-9.792969 9.792969-9.792969 5.40625 0 9.789062 4.382813 9.789062 9.792969zm0 0"/><path d="m94.222656 194.59375c0 5.40625-4.382812 9.789062-9.789062 9.789062-5.410156 0-9.792969-4.382812-9.792969-9.789062 0-5.410156 4.382813-9.792969 9.792969-9.792969 5.40625 0 9.789062 4.382813 9.789062 9.792969zm0 0"/><path d="m409.640625 207.960938h-48.742187c-23.347657 0-42.339844 18.996093-42.339844 42.339843 0 7.371094 5.996094 13.367188 13.363281 13.367188h22.222656c7.089844 0 13.8125-1.835938 19.664063-5.117188 3.691406 1.144531 7.53125 1.722657 11.460937 1.722657 3.929688 0 7.765625-.578126 11.460938-1.722657 5.851562 3.28125 12.574219 5.117188 19.664062 5.117188h22.222657c7.367187 0 13.363281-5.996094 13.363281-13.367188 0-23.34375-18.992188-42.339843-42.339844-42.339843zm6.753906 40.773437c-5.617187-.242187-10.570312-1.851563-14.871093-4.832031-4.21875-3.085938-7.472657-7.496094-9.128907-12.773438-.980469-3.113281-3.863281-5.226562-7.125-5.226562s-6.148437 2.113281-7.125 5.226562c-1.65625 5.28125-4.910156 9.6875-9.132812 12.773438-4.296875 2.980468-9.253907 4.589844-14.867188 4.832031h-20.605469c.816407-14.386719 12.773438-25.835937 27.359376-25.835937h48.742187c14.585937 0 26.546875 11.449218 27.363281 25.835937zm0 0"/><path d="m337.945312 180.910156c-4.53125 1.949219-7.703124 6.449219-7.703124 11.691406 0 7.027344 5.699218 12.726563 12.730468 12.726563 7.027344 0 12.726563-5.695313 12.726563-12.726563 0-5.242187-3.171875-9.742187-7.703125-11.691406h.246094c10.640624 0 19.292968-8.65625 19.292968-19.296875s-8.652344-19.296875-19.292968-19.296875h-16.753907c-10.636719 0-19.292969 8.65625-19.292969 19.296875s8.65625 19.296875 19.292969 19.296875zm-10.816406-19.296875c0-2.40625 1.957032-4.363281 4.363282-4.363281h16.746093c2.40625 0 4.363281 1.957031 4.363281 4.363281s-1.957031 4.363281-4.363281 4.363281h-16.75c-2.402343-.003906-4.359375-1.960937-4.359375-4.363281zm0 0"/><path d="m441.554688 142.316406h-16.746094c-10.640625 0-19.296875 8.65625-19.296875 19.296875 0 9.960938 7.589843 18.183594 17.292969 19.191407-4.667969 1.886718-7.964844 6.453124-7.964844 11.796874 0 7.027344 5.695312 12.726563 12.726562 12.726563s12.730469-5.695313 12.730469-12.726563c0-5.242187-3.175781-9.742187-7.703125-11.691406h8.960938c10.640624 0 19.296874-8.65625 19.296874-19.296875s-8.65625-19.296875-19.296874-19.296875zm0 23.65625h-16.746094c-2.40625 0-4.363282-1.957031-4.363282-4.359375 0-2.40625 1.957032-4.363281 4.363282-4.363281h16.746094c2.40625 0 4.363281 1.957031 4.363281 4.363281 0 2.402344-1.957031 4.359375-4.363281 4.359375zm0 0"/></svg>