<?xml version="1.0"?>
<svg xmlns="http://www.w3.org/2000/svg" id="Layer_1" data-name="Layer 1" viewBox="0 0 512 512" width="512" height="512"><title>E-mail</title><path d="M118.5,477h160a46.052,46.052,0,0,0,46-46V338h89a26.03,26.03,0,0,0,26-26V174a26.03,26.03,0,0,0-26-26h-89V81a46.052,46.052,0,0,0-46-46h-160a46.052,46.052,0,0,0-46,46V431A46.052,46.052,0,0,0,118.5,477Zm95-151a13.907,13.907,0,0,1-6.6-1.661L255.661,264.2a6,6,0,1,0-9.32-7.557l-46.654,57.535A13.977,13.977,0,0,1,199.5,312V193.654l93.71,73.862a29.264,29.264,0,0,0,40.583,0L427.5,193.663V312a13.979,13.979,0,0,1-.2,2.237l-47.063-57.611a6,6,0,0,0-9.293,7.592l49.125,60.135A13.906,13.906,0,0,1,413.5,326Zm214-152v4.384L326.111,258.292a5.936,5.936,0,0,0-.511.452,17.226,17.226,0,0,1-24.2,0,5.941,5.941,0,0,0-.512-.453L199.5,178.374V174a14.015,14.015,0,0,1,14-14h200A14.015,14.015,0,0,1,427.5,174ZM118.5,47h160a34.038,34.038,0,0,1,34,34V95h-14a6,6,0,0,0,0,12h14v41h-99a26.03,26.03,0,0,0-26,26V312a26.03,26.03,0,0,0,26,26h99v55H84.5V107h163a6,6,0,0,0,0-12H84.5V81A34.038,34.038,0,0,1,118.5,47Zm-34,358h228v26a34.038,34.038,0,0,1-34,34h-160a34.038,34.038,0,0,1-34-34Z"/><path d="M267.2,107H278.31a6,6,0,0,0,0-12H267.2a6,6,0,0,0,0,12Z"/><path d="M198.5,456a21,21,0,1,0-21-21A21.024,21.024,0,0,0,198.5,456Zm0-30a9,9,0,1,1-9,9A9.01,9.01,0,0,1,198.5,426Z"/></svg>
