<svg id="Capa_1" enable-background="new 0 0 511.998 511.998" height="512" viewBox="0 0 511.998 511.998" width="512" xmlns="http://www.w3.org/2000/svg"><g><g><path d="m339.15 448.884c-4.209 0-7.607 3.465-7.499 7.698.106 4.125 3.72 7.305 7.846 7.305h70.067c4.126 0 7.741-3.179 7.846-7.305.108-4.233-3.29-7.698-7.499-7.698z"/><path d="m493.138 491.32-16.472-84.287c-3.751-19.185-13.85-36.202-30.019-50.577-3.153-2.802-8.015-2.463-10.743.799-2.638 3.154-2.032 7.902 1.032 10.643 13.695 12.256 21.877 26.002 25.006 42.013l16.471 84.28c.002.012.005.023.007.035.265 1.372-.766 2.642-2.162 2.719-.572.032-1.241.051-2.021.051h-185.93c-.023 0-.04-.022-.035-.045l43.374-175.293c.005-.019.024-.031.044-.026 24.718 6.462 52.969 14.63 77.095 27.26 1.111.581 2.3.858 3.473.858 2.886 0 5.667-1.672 6.908-4.563 1.574-3.67-.208-7.911-3.75-9.756-29.728-15.494-64.442-24.376-92.355-31.518 0 0-4.464-1.194-4.824-1.337-.01-.004-.011-.004-.011-.015-.007-.563-.01-24.717-.01-25.038 0-.006.003-.005.008-.009 24.551-18.031 44.635-44.461 53.806-70.713.004-.013.016-.022.029-.023 20.816-2.067 40.279-14.626 40.279-36.648v-11.17c0-14.063-11.326-25.505-25.249-25.505h-9.614c-.02 0-.036-.016-.036-.035l-.37-24.571c.048-17.427-3.87-33.559-11.646-47.949-1.97-3.644-6.519-5.003-10.166-3.034-3.645 1.97-5.003 6.521-3.034 10.166 6.581 12.178 9.892 25.917 9.843 40.834 0 .046 0 .093.001.139l.377 25.002c0 .019-.014.035-.034.037-48.55 3.153-119.262-6.939-159.959-30.431-18.436-10.638-40.527-1.174-57.281 15.689-.022.023-.061.007-.061-.025v-23.826c0-8.261 1.215-28.588 12.47-38.89 5.709-5.226 13.325-7.341 23.281-6.455 3.498.307 6.735-1.842 7.805-5.182 3.927-12.243 15.774-21.648 33.359-26.482 31.001-8.522 79.198-2.285 111.332 26.126 3.103 2.743 7.843 2.453 10.589-.651 2.744-3.104 2.453-7.844-.651-10.589-36.125-31.94-90.347-38.944-125.244-29.352-20.18 5.547-34.695 16.414-41.522 30.916-.006.012-.018.02-.032.02-11.646.034-21.397 3.581-29.045 10.582-15.089 13.812-17.342 37.228-17.342 49.957v37.966c0 .02-.016.036-.036.036h-9.502c-13.921 0-25.248 11.441-25.248 25.505v11.17c0 22.022 19.466 34.583 40.283 36.648.013.001.025.01.029.023 9.562 27.339 30.99 54.91 57.01 72.995.369.253.748.507 1.121.761.01.007.016.012.016.024 0 .593-.004 21.383-.01 21.978 0 .012-.002.014-.013.018-.371.145-4.817 1.334-4.817 1.334-55.943 14.297-140.484 35.903-153.611 103.126l-16.474 84.294c-.464 2.385-1.875 9.646 2.559 15.025 4.125 5.003 10.901 5.645 16.344 5.645h436.477c5.442 0 12.219-.642 16.344-5.645 4.435-5.379 3.023-12.64 2.557-15.034zm-116.909-300.438c.87-4.912 1.324-9.722 1.324-14.376v-28.015c0-.02.016-.036.036-.036h9.501c5.554 0 10.246 4.809 10.246 10.502v11.17c0 11.12-9.536 18.188-21.051 20.809-.028-.026-.028-.027-.056-.054zm-265.903-20.755v-11.17c0-5.692 4.691-10.502 10.245-10.502h9.502c.02 0 .036.016.036.036v28.015c0 4.654.454 9.464 1.324 14.376-.028.027-.028.027-.056.054-11.516-2.62-21.051-9.688-21.051-20.809zm200.465 173.245c-37.325 19.294-72.355 19.132-109.726-.504-.009-.005-.016-.013-.018-.023l-6.178-24.966 1.113-.284c10.583-2.679 12.804-9.827 12.804-15.352v-12.709c0-.027.028-.044.052-.031 4.403 2.244 8.84 4.206 13.277 5.85 11.576 4.306 21.658 6.312 31.731 6.312 10.055 0 20.129-2.005 31.698-6.31 5.934-2.203 11.824-4.944 17.618-8.169.024-.013.053.004.053.031v15.026c0 5.525 2.221 12.673 12.783 15.346l1.13.29-6.317 25.47c-.004.009-.011.018-.02.023zm-162.417-145.918c-2.165-7.315-3.263-14.363-3.263-20.948v-33.359c0-.007.002-.014.006-.02 13.062-20.048 34.816-35.187 49.836-26.522 39.233 22.648 100.552 33.017 148.926 33.016 6.473 0 12.708-.19 18.634-.557.021-.001.038.015.038.036v27.407c0 6.586-1.098 13.633-3.266 20.954-7.648 25.908-27.897 52.746-52.836 70.034-8.482 5.865-17.273 10.507-26.133 13.796-9.847 3.664-18.259 5.37-26.472 5.37-8.231 0-16.702-1.574-26.509-5.373-16.345-6.332-24.802-12.905-26.166-13.839-24.926-17.326-45.155-44.145-52.795-69.995zm-110.613 299.541c-.815 0-1.51-.021-2.099-.056-1.369-.08-2.345-1.36-2.085-2.707l.007-.035 16.473-84.288c10.449-53.508 78.689-74.814 130.247-88.285.019-.005.039.007.044.026l43.378 175.299c.006.023-.012.045-.035.045h-185.93zm235.018 0h-33.56c-.017 0-.031-.011-.035-.027l-33.447-135.165c-.007-.029.022-.053.049-.041 17.113 7.419 33.862 11.145 50.614 11.145 16.447 0 32.9-3.594 49.694-10.745.027-.012.056.012.049.041l-33.33 134.764c-.003.017-.017.028-.034.028z"/><path d="m207.207 188.966c4.125-.106 7.305-3.72 7.305-7.846v-4.947c0-4.126-3.179-7.741-7.305-7.846-4.233-.108-7.698 3.29-7.698 7.499v5.642c0 4.208 3.465 7.606 7.698 7.498z"/><path d="m299.544 188.966c4.125-.106 7.305-3.72 7.305-7.846v-4.947c0-4.126-3.179-7.741-7.305-7.846-4.233-.108-7.698 3.29-7.698 7.499v5.642c-.001 4.208 3.464 7.606 7.698 7.498z"/><path d="m252.521 250.916c.216.004.431.007.646.007 9.233 0 18.091-3.897 25.044-11.026 2.547-2.611 3.107-6.724 1.006-9.706-2.819-4.001-8.384-4.273-11.593-.928-4.216 4.396-9.461 6.756-14.807 6.654-4.991-.099-9.684-2.299-13.249-6.204-2.376-2.603-6.189-3.59-9.292-1.919-4.462 2.402-5.287 8.092-2.146 11.638 6.401 7.222 15.063 11.301 24.391 11.484z"/></g></g></svg>