<?xml version="1.0" encoding="utf-8"?>
<!-- Generator: Adobe Illustrator 15.1.0, SVG Export Plug-In  -->
<!DOCTYPE svg PUBLIC "-//W3C//DTD SVG 1.1//EN" "http://www.w3.org/Graphics/SVG/1.1/DTD/svg11.dtd" [
	<!ENTITY ns_flows "http://ns.adobe.com/Flows/1.0/">
]>
<svg version="1.1"
	 xmlns="http://www.w3.org/2000/svg" xmlns:xlink="http://www.w3.org/1999/xlink" xmlns:a="http://ns.adobe.com/AdobeSVGViewerExtensions/3.0/"
	 x="0px" y="0px" width="635px" height="162px" viewBox="-11.518 -15.123 635 162" enable-background="new -11.518 -15.123 635 162"
	 xml:space="preserve">
<defs>
</defs>
<path fill="#6E8CC7" d="M0,4.404h19.173v34.357L46.227,4.404h22.777L34.204,48.881l38.186,55.182H49.896L19.173,59.783v44.279H0
	V4.404z"/>
<path fill="#C7936D" d="M83.806,30.352h18.699v35.5c0,6.911,0.475,11.709,1.426,14.397s2.479,4.775,4.585,6.267
	c2.104,1.49,4.697,2.235,7.776,2.235c3.079,0,5.693-0.733,7.844-2.201s3.747-3.625,4.788-6.471c0.77-2.122,1.155-6.662,1.155-13.617
	v-36.11h18.496v31.232c0,12.872-1.016,21.68-3.049,26.422c-2.484,5.782-6.143,10.22-10.975,13.313
	c-4.833,3.092-10.976,4.641-18.428,4.641c-8.085,0-14.624-1.808-19.614-5.42c-4.991-3.613-8.502-8.648-10.535-15.108
	c-1.446-4.472-2.168-12.602-2.168-24.39V30.352z"/>
<path fill="#C7936D" d="M212.257,40.649l-11.45,11.45c-4.652-4.607-8.875-6.911-12.669-6.911c-2.078,0-3.704,0.44-4.878,1.321
	c-1.175,0.881-1.761,1.976-1.761,3.286c0,0.994,0.373,1.909,1.118,2.744c0.745,0.836,2.585,1.976,5.521,3.421l6.775,3.388
	c7.136,3.523,12.036,7.114,14.702,10.772c2.665,3.658,3.997,7.95,3.997,12.873c0,6.549-2.405,12.014-7.215,16.395
	s-11.258,6.572-19.342,6.572c-10.75,0-19.332-4.201-25.745-12.602l11.382-12.398c2.168,2.53,4.708,4.573,7.622,6.131
	c2.914,1.559,5.499,2.338,7.757,2.338c2.439,0,4.404-0.586,5.895-1.762c1.49-1.174,2.235-2.529,2.235-4.064
	c0-2.846-2.688-5.623-8.062-8.334l-6.233-3.115c-11.924-6.007-17.886-13.527-17.886-22.561c0-5.827,2.246-10.806,6.741-14.938
	c4.494-4.133,10.241-6.199,17.242-6.199c4.787,0,9.292,1.05,13.516,3.15C205.742,33.705,209.321,36.72,212.257,40.649z"/>
<path fill="#C7936D" d="M228.111,30.352h18.699v35.5c0,6.911,0.475,11.709,1.426,14.397s2.479,4.775,4.585,6.267
	c2.104,1.49,4.697,2.235,7.776,2.235c3.079,0,5.693-0.733,7.844-2.201s3.747-3.625,4.788-6.471c0.77-2.122,1.155-6.662,1.155-13.617
	v-36.11h18.496v31.232c0,12.872-1.017,21.68-3.049,26.422c-2.484,5.782-6.143,10.22-10.975,13.313
	c-4.833,3.092-10.976,4.641-18.428,4.641c-8.085,0-14.624-1.808-19.614-5.42c-4.991-3.613-8.502-8.648-10.535-15.108
	c-1.446-4.472-2.168-12.602-2.168-24.39V30.352z"/>
<path fill="#C7936D" d="M307.106,30.352h15.854v9.282c1.716-3.659,3.997-6.437,6.842-8.333c2.846-1.897,5.962-2.845,9.35-2.845
	c2.394,0,4.9,0.633,7.521,1.897l-5.759,15.921c-2.168-1.084-3.953-1.626-5.353-1.626c-2.845,0-5.25,1.762-7.215,5.285
	s-2.947,10.433-2.947,20.731l0.067,3.591v29.81h-18.359V30.352z"/>
<path fill="#C7936D" d="M363.033,0c3.242,0,6.023,1.175,8.343,3.523c2.319,2.349,3.479,5.194,3.479,8.536
	c0,3.298-1.148,6.109-3.445,8.435c-2.297,2.327-5.044,3.489-8.241,3.489c-3.288,0-6.092-1.186-8.411-3.557s-3.479-5.25-3.479-8.638
	c0-3.252,1.147-6.029,3.444-8.333C357.021,1.152,359.79,0,363.033,0z M353.786,30.352h18.495v73.711h-18.495V30.352z"/>
<path fill="#6E8CC7" d="M391.251,4.404h19.173v34.357l27.054-34.357h22.777l-34.801,44.477l38.187,55.182h-22.494l-30.723-44.279
	v44.279h-19.173V4.404z"/>
<path fill="#C7936D" d="M529.526,30.352h18.495v73.711h-18.495v-7.791c-3.609,3.433-7.23,5.905-10.861,7.419
	c-3.632,1.512-7.567,2.27-11.809,2.27c-9.519,0-17.752-3.693-24.699-11.078c-6.947-7.384-10.421-16.564-10.421-27.54
	c0-11.382,3.361-20.708,10.083-27.98c6.722-7.271,14.887-10.908,24.496-10.908c4.421,0,8.57,0.836,12.45,2.507
	c3.88,1.671,7.467,4.178,10.761,7.52V30.352z M510.083,45.527c-5.717,0-10.466,2.022-14.247,6.063
	c-3.781,4.043-5.672,9.226-5.672,15.548c0,6.369,1.924,11.608,5.772,15.717c3.849,4.111,8.586,6.166,14.214,6.166
	c5.807,0,10.624-2.021,14.449-6.064c3.826-4.041,5.739-9.337,5.739-15.887c0-6.413-1.913-11.607-5.739-15.582
	C520.774,47.515,515.936,45.527,510.083,45.527z"/>
<path fill="#C7936D" d="M564.688,1.897h18.495v102.166h-18.495V1.897z"/>
<path fill="#C7936D" d="M597.953,1.897h18.495v102.166h-18.495V1.897z"/>
</svg>
